<svg fill="currentColor" width="464" height="512" viewBox="0 0 512 512" xmlns="http://www.w3.org/2000/svg">
    <g>
        <path fill-rule="evenodd" clip-rule="evenodd"
              d="M250 75.0977C154.806 78.1981 78.1981 154.806 75.0976 250H128.138C131.18 184.082 184.082 131.18 250 128.138V75.0977ZM250 383.862C184.415 380.836 131.716 328.453 128.188 263H75.1329C78.7352 357.73 155.139 433.813 250 436.903V383.862ZM263 436.867V383.812C302.417 381.688 337.093 361.73 359.105 331.865L403.413 361.05C371.857 405.253 320.913 434.665 263 436.867ZM410.583 350.205C427.343 322.763 437 290.509 437 256C437 158.381 359.719 78.8109 263 75.133V128.188C330.437 131.823 384 187.656 384 256C384 279.738 377.538 301.967 366.278 321.023L410.583 350.205Z"
             />

    </g>
</svg>
