<svg width="512" height="512" viewBox="0 0 512 512" fill="none" xmlns="http://www.w3.org/2000/svg">
<path fill-rule="evenodd" clip-rule="evenodd" d="M112 87V384H440V424H72V87H112Z"/>
<path d="M151 315H177V341H151V315Z" />
<path d="M181 265H207V291H181V265Z" />
<path d="M252 299H278V325H252V299Z" />
<path d="M295 239H321V265H295V239Z" />
<path d="M352 315H378V341H352V315Z" />
<path d="M207 213H233V239H207V213Z" />
<path d="M344 226H370V252H344V226Z" />
<path d="M378 136H404V162H378V136Z" />
<path d="M295 173H321V199H295V173Z" />
<path d="M207 143H233V169H207V143Z" />
</svg>
