<svg width="512" height="512" viewBox="0 0 512 512" fill="none" xmlns="http://www.w3.org/2000/svg">
<path fill-rule="evenodd" clip-rule="evenodd" d="M253.5 110.021V75.0169C254.332 75.0057 255.165 75 256 75C355.964 75 437 156.036 437 256C437 355.964 355.964 437 256 437C156.036 437 75 355.964 75 256C75 236.825 77.9818 218.346 83.5071 201.002L117.865 208.605C112.767 223.466 110 239.41 110 256C110 336.634 175.366 402 256 402C336.633 402 402 336.634 402 256C402 175.366 336.633 110 256 110C255.165 110 254.331 110.007 253.5 110.021ZM254.163 158.017V123.012C254.774 123.004 255.387 123 256 123C329.454 123 389 182.546 389 256C389 329.454 329.454 389 256 389C182.546 389 123 329.454 123 256C123 249.566 123.457 243.239 124.34 237.049L159.178 240.761C158.402 245.727 158 250.816 158 256C158 310.124 201.876 354 256 354C310.124 354 354 310.124 354 256C354 201.876 310.124 158 256 158C255.386 158 254.774 158.006 254.163 158.017ZM254.826 171.008V206.014C255.216 206.005 255.608 206 256 206C283.614 206 306 228.386 306 256C306 283.614 283.614 306 256 306C228.699 306 206.509 284.12 206.009 256.939H171.005C171.509 303.451 209.369 341 256 341C302.944 341 341 302.944 341 256C341 209.056 302.944 171 256 171C255.608 171 255.217 171.003 254.826 171.008Z" fill="#C23531"/>
</svg>
