<svg width="512" height="512" viewBox="0 0 512 512" fill="none" xmlns="http://www.w3.org/2000/svg">
<path fill-rule="evenodd" clip-rule="evenodd" d="M259.274 61.0269V167.059C258.187 167.02 257.096 167 256 167C206.847 167 167 206.847 167 256C167 256.876 167.013 257.749 167.038 258.619L61.0172 258.619C61.0058 257.747 61 256.874 61 256C61 148.304 148.304 61 256 61C257.093 61 258.185 61.009 259.274 61.0269ZM268.5 96.4811L268.5 167.871C308.15 173.444 339.414 205.142 344.327 245H415.628C410.257 165.901 347.398 102.578 268.5 96.4811ZM252 422.953V344.912C253.326 344.97 254.66 345 256 345C304.485 345 343.915 306.23 344.978 258L422.988 258C421.917 349.31 347.564 423 256 423C254.663 423 253.33 422.984 252 422.953ZM168.017 269.5H75.4958C82.0359 358.201 152.501 429.127 241 436.387V343.741C203.367 337.354 173.776 307.343 168.017 269.5Z"/>
</svg>
